<?xml version="1.0" encoding="UTF-8" standalone="no"?>
<svg
   id="svg"
   version="1.1"
   width="150"
   height="150"
   viewBox="0 0 150 150"
   sodipodi:docname="logo.svg"
   inkscape:version="1.2 (dc2aeda, 2022-05-15)"
   xmlns:inkscape="http://www.inkscape.org/namespaces/inkscape"
   xmlns:sodipodi="http://sodipodi.sourceforge.net/DTD/sodipodi-0.dtd"
   xmlns="http://www.w3.org/2000/svg"
   xmlns:svg="http://www.w3.org/2000/svg">
  <defs
     id="defs68" />
  <sodipodi:namedview
     id="namedview66"
     pagecolor="#ffffff"
     bordercolor="#666666"
     borderopacity="1.0"
     inkscape:showpageshadow="2"
     inkscape:pageopacity="0.0"
     inkscape:pagecheckerboard="0"
     inkscape:deskcolor="#d1d1d1"
     showgrid="false"
     inkscape:zoom="1.6873472"
     inkscape:cx="87.119"
     inkscape:cy="43.855823"
     inkscape:window-width="1440"
     inkscape:window-height="900"
     inkscape:window-x="0"
     inkscape:window-y="530"
     inkscape:window-maximized="0"
     inkscape:current-layer="svg" />
  <g
     inkscape:label="Clip"
     id="g184"
     transform="matrix(1.2023334,0,0,1.2023334,15.984791,0)">
    <path
       id="path2"
       d="M 49.083,0.107 C 44.959,0.581 43.904,0.726 43.833,0.827 43.788,0.893 43.019,1.083 42.125,1.25 41.231,1.416 40.5,1.608 40.5,1.676 40.5,1.744 39.938,1.925 39.25,2.078 38.563,2.231 38,2.415 38,2.487 c 0,0.071 -0.488,0.262 -1.083,0.423 -0.596,0.162 -1.084,0.354 -1.084,0.429 0,0.074 -0.243,0.185 -0.541,0.247 -0.298,0.063 -0.842,0.281 -1.209,0.486 -0.366,0.204 -0.929,0.474 -1.25,0.599 -0.321,0.125 -0.621,0.277 -0.666,0.338 -0.046,0.06 -0.421,0.271 -0.834,0.468 -0.412,0.196 -1.05,0.54 -1.416,0.762 -0.367,0.223 -0.967,0.57 -1.334,0.772 -0.366,0.201 -0.726,0.468 -0.8,0.594 -0.073,0.126 -0.228,0.228 -0.343,0.228 -0.116,0 -0.363,0.142 -0.549,0.316 -0.187,0.174 -0.58,0.44 -0.874,0.592 -0.294,0.152 -0.675,0.404 -0.848,0.56 -0.172,0.155 -0.554,0.47 -0.85,0.699 -0.596,0.463 -1.566,1.267 -2.044,1.696 -0.172,0.154 -0.572,0.491 -0.891,0.75 -0.687,0.559 -4.135,4.004 -5.26,5.256 -0.897,0.998 -1.239,1.399 -2.101,2.463 -0.333,0.411 -0.738,0.894 -0.898,1.073 -0.16,0.179 -0.292,0.375 -0.292,0.436 0,0.061 -0.168,0.304 -0.375,0.54 C 11.784,22.986 11,24.112 11,24.308 c 0,0.106 -0.071,0.192 -0.159,0.192 -0.087,0 -0.283,0.263 -0.436,0.583 -0.152,0.321 -0.331,0.584 -0.397,0.584 -0.067,0 -0.264,0.299 -0.44,0.664 -0.175,0.366 -0.363,0.666 -0.418,0.667 -0.055,10e-4 -0.24,0.321 -0.412,0.71 -0.171,0.39 -0.402,0.765 -0.512,0.835 C 8.115,28.612 7.934,28.95 7.822,29.293 7.71,29.636 7.557,29.957 7.482,30.006 7.277,30.14 6,32.678 6,32.952 c 0,0.131 -0.115,0.353 -0.255,0.494 -0.141,0.14 -0.344,0.585 -0.451,0.988 -0.108,0.403 -0.25,0.733 -0.315,0.733 -0.065,0 -0.248,0.393 -0.407,0.875 C 4.414,36.523 4.235,36.954 4.176,37 4.116,37.046 3.925,37.571 3.75,38.167 3.575,38.762 3.382,39.287 3.32,39.333 3.257,39.379 3.074,39.979 2.911,40.667 2.749,41.354 2.559,41.992 2.49,42.083 2.422,42.175 2.231,42.887 2.067,43.667 1.903,44.446 1.722,45.121 1.665,45.167 1.538,45.268 1,48.266 1,48.871 c 0,0.239 -0.069,0.46 -0.154,0.49 -1.008,0.363 -1.023,23.674 -0.016,25.618 0.077,0.149 0.268,1.054 0.423,2.011 0.156,0.957 0.343,1.857 0.417,2 0.073,0.143 0.267,0.897 0.431,1.677 0.163,0.779 0.348,1.454 0.412,1.5 0.063,0.045 0.205,0.533 0.316,1.083 0.111,0.55 0.299,1.154 0.418,1.342 0.12,0.188 0.351,0.825 0.515,1.416 0.163,0.592 0.348,1.113 0.41,1.159 0.062,0.045 0.207,0.383 0.322,0.75 0.116,0.366 0.3,0.816 0.409,1 0.11,0.183 0.339,0.708 0.508,1.166 0.17,0.459 0.357,0.871 0.416,0.917 0.059,0.046 0.246,0.458 0.416,0.917 0.17,0.458 0.362,0.87 0.425,0.916 0.064,0.046 0.254,0.384 0.424,0.75 0.169,0.367 0.359,0.704 0.422,0.75 0.063,0.046 0.238,0.346 0.387,0.667 0.285,0.61 0.975,1.797 1.211,2.083 0.076,0.092 0.286,0.448 0.468,0.792 0.181,0.344 0.378,0.625 0.438,0.625 0.059,0 0.202,0.227 0.317,0.504 0.115,0.277 0.293,0.558 0.395,0.625 0.103,0.067 0.328,0.375 0.501,0.686 0.173,0.31 0.436,0.699 0.584,0.864 0.147,0.165 0.418,0.503 0.602,0.751 0.183,0.248 0.483,0.618 0.666,0.822 0.184,0.203 0.409,0.482 0.5,0.618 0.534,0.791 1.298,1.715 1.585,1.916 0.183,0.128 0.332,0.306 0.332,0.396 0,0.09 0.525,0.678 1.167,1.307 0.641,0.629 1.166,1.211 1.166,1.295 0,0.083 0.457,0.559 1.016,1.058 0.559,0.5 1.408,1.283 1.887,1.741 0.48,0.459 1.197,1.096 1.594,1.417 0.398,0.321 1.062,0.872 1.476,1.226 0.415,0.353 0.928,0.721 1.141,0.818 0.212,0.097 0.386,0.225 0.386,0.284 0,0.06 0.507,0.441 1.125,0.847 0.619,0.407 1.2,0.802 1.292,0.878 0.319,0.265 1.504,0.946 2.125,1.221 0.344,0.152 0.625,0.329 0.625,0.393 0,0.063 0.319,0.256 0.708,0.428 0.39,0.172 0.746,0.354 0.792,0.405 0.046,0.051 0.421,0.238 0.833,0.417 0.413,0.178 0.788,0.371 0.834,0.429 0.045,0.058 0.383,0.2 0.75,0.315 0.366,0.115 0.819,0.305 1.005,0.421 0.186,0.116 0.786,0.35 1.333,0.518 0.547,0.169 1.032,0.353 1.078,0.409 0.046,0.056 0.627,0.242 1.292,0.412 0.665,0.17 1.208,0.358 1.208,0.416 0,0.058 0.732,0.247 1.625,0.42 0.894,0.173 1.663,0.364 1.709,0.425 0.107,0.144 3.81,0.651 4.75,0.651 0.429,0 0.75,0.085 0.791,0.209 0.055,0.164 3.046,0.22 14.014,0.263 l 13.945,0.055 v -6.763 -6.764 H 64.083 c -8.611,0 -13.083,-0.057 -13.083,-0.166 0,-0.092 -0.309,-0.167 -0.687,-0.167 -0.899,0 -4.135,-0.467 -4.563,-0.659 -0.183,-0.082 -0.896,-0.278 -1.583,-0.437 -0.688,-0.158 -1.288,-0.339 -1.334,-0.402 -0.045,-0.062 -0.627,-0.253 -1.291,-0.423 -0.665,-0.17 -1.209,-0.36 -1.209,-0.422 0,-0.061 -0.412,-0.241 -0.916,-0.4 -0.505,-0.158 -0.917,-0.341 -0.917,-0.406 0,-0.065 -0.375,-0.253 -0.833,-0.418 -0.459,-0.165 -0.834,-0.355 -0.834,-0.423 0,-0.068 -0.303,-0.224 -0.674,-0.346 -0.372,-0.123 -0.728,-0.303 -0.792,-0.402 -0.064,-0.098 -0.417,-0.328 -0.784,-0.51 -0.366,-0.183 -0.726,-0.427 -0.8,-0.542 -0.073,-0.116 -0.228,-0.21 -0.343,-0.21 -0.116,0 -0.356,-0.135 -0.534,-0.3 -0.177,-0.165 -0.578,-0.446 -0.89,-0.625 -0.312,-0.179 -0.731,-0.475 -0.93,-0.658 -0.2,-0.184 -0.609,-0.521 -0.91,-0.75 -0.3,-0.229 -0.922,-0.755 -1.381,-1.167 -0.459,-0.413 -0.926,-0.803 -1.038,-0.868 -0.321,-0.187 -2.924,-2.825 -2.924,-2.964 0,-0.069 -0.3,-0.416 -0.666,-0.771 C 23.8,96.041 23.5,95.7 23.5,95.639 c 0,-0.062 -0.3,-0.424 -0.667,-0.806 -0.366,-0.381 -0.667,-0.744 -0.667,-0.805 0,-0.061 -0.225,-0.374 -0.501,-0.695 -0.275,-0.32 -0.542,-0.714 -0.594,-0.875 -0.051,-0.16 -0.152,-0.291 -0.223,-0.291 -0.071,0 -0.27,-0.263 -0.443,-0.584 C 20.232,91.263 20.034,91 19.964,91 19.895,91 19.729,90.739 19.596,90.421 19.463,90.102 19.199,89.675 19.01,89.472 18.821,89.27 18.667,89.011 18.667,88.897 c 0,-0.114 -0.097,-0.306 -0.215,-0.427 -0.118,-0.121 -0.354,-0.52 -0.525,-0.887 -0.17,-0.366 -0.362,-0.704 -0.425,-0.75 -0.064,-0.046 -0.25,-0.439 -0.415,-0.875 -0.164,-0.435 -0.352,-0.791 -0.416,-0.791 -0.064,0 -0.257,-0.413 -0.428,-0.917 -0.172,-0.504 -0.363,-0.917 -0.426,-0.917 -0.063,0 -0.249,-0.45 -0.414,-1 -0.165,-0.55 -0.353,-1 -0.418,-1 -0.065,0 -0.21,-0.393 -0.323,-0.875 -0.112,-0.481 -0.338,-1.175 -0.501,-1.541 -0.163,-0.367 -0.388,-1.136 -0.5,-1.709 -0.113,-0.573 -0.257,-1.041 -0.322,-1.041 -0.065,0 -0.248,-0.807 -0.407,-1.792 -0.158,-0.985 -0.356,-1.919 -0.439,-2.074 -0.191,-0.358 -0.66,-4.769 -0.66,-6.213 0,-0.614 -0.072,-1.088 -0.166,-1.088 -0.226,0 -0.226,-5.611 0,-5.75 0.091,-0.057 0.166,-0.585 0.166,-1.175 0,-1.359 0.493,-6.129 0.644,-6.241 0.063,-0.046 0.251,-0.909 0.418,-1.917 0.168,-1.009 0.358,-1.871 0.424,-1.917 0.066,-0.046 0.249,-0.683 0.408,-1.417 0.158,-0.733 0.359,-1.358 0.447,-1.389 0.088,-0.03 0.159,-0.153 0.159,-0.272 0,-0.301 0.543,-1.987 0.673,-2.089 0.059,-0.045 0.245,-0.552 0.415,-1.125 0.17,-0.573 0.366,-1.041 0.435,-1.041 0.07,0 0.257,-0.413 0.416,-0.917 0.159,-0.504 0.34,-0.917 0.402,-0.917 0.063,0 0.25,-0.356 0.415,-0.791 0.166,-0.436 0.389,-0.867 0.497,-0.959 0.108,-0.091 0.298,-0.426 0.423,-0.743 0.125,-0.316 0.361,-0.71 0.526,-0.875 0.164,-0.164 0.298,-0.407 0.298,-0.54 0,-0.133 0.094,-0.302 0.209,-0.375 0.114,-0.073 0.357,-0.433 0.54,-0.8 0.182,-0.367 0.426,-0.727 0.541,-0.8 0.116,-0.073 0.21,-0.238 0.21,-0.365 0,-0.128 0.132,-0.332 0.292,-0.453 0.291,-0.22 0.609,-0.657 0.823,-1.132 0.063,-0.137 0.25,-0.348 0.416,-0.468 0.166,-0.12 0.303,-0.317 0.303,-0.439 0,-0.122 0.187,-0.344 0.416,-0.494 0.229,-0.15 0.417,-0.355 0.417,-0.456 0,-0.1 0.3,-0.473 0.667,-0.829 0.366,-0.356 0.667,-0.703 0.668,-0.772 10e-4,-0.151 4.719,-4.875 4.867,-4.875 0.057,0 0.416,-0.3 0.798,-0.667 0.382,-0.367 0.744,-0.667 0.805,-0.667 0.062,0 0.374,-0.225 0.695,-0.5 0.321,-0.274 0.628,-0.499 0.682,-0.499 0.055,0 0.317,-0.188 0.584,-0.417 0.266,-0.229 0.574,-0.417 0.684,-0.417 0.11,0 0.26,-0.094 0.333,-0.21 0.074,-0.115 0.434,-0.359 0.8,-0.542 0.367,-0.182 0.72,-0.412 0.784,-0.51 0.064,-0.099 0.42,-0.279 0.792,-0.402 0.371,-0.122 0.674,-0.278 0.674,-0.346 0,-0.068 0.375,-0.258 0.834,-0.423 0.458,-0.165 0.833,-0.354 0.833,-0.42 0,-0.066 0.394,-0.25 0.875,-0.408 0.481,-0.159 0.912,-0.337 0.958,-0.397 0.046,-0.059 0.571,-0.251 1.167,-0.425 0.596,-0.175 1.121,-0.362 1.167,-0.416 0.045,-0.054 0.683,-0.231 1.416,-0.393 0.734,-0.163 1.484,-0.361 1.667,-0.441 0.467,-0.203 2.235,-0.474 3.958,-0.605 0.802,-0.061 1.459,-0.175 1.459,-0.253 0,-0.078 5.85,-0.142 13,-0.142 h 13 V 6.583 0 L 63.375,0.025 C 55.79,0.039 49.358,0.076 49.083,0.107 m 31.25,61.976 v 62.084 H 86.167 92 V 62.083 0 H 86.167 80.333 V 62.083 M 50.583,17.776 c -0.275,0.032 -1.231,0.142 -2.125,0.244 -0.893,0.101 -1.625,0.237 -1.625,0.302 0,0.064 -0.712,0.251 -1.583,0.415 -0.871,0.164 -1.583,0.351 -1.583,0.415 0,0.064 -0.525,0.253 -1.167,0.42 -0.642,0.166 -1.167,0.353 -1.167,0.414 0,0.061 -0.412,0.252 -0.916,0.423 -0.505,0.172 -0.917,0.375 -0.917,0.451 0,0.077 -0.12,0.14 -0.266,0.14 -0.264,0 -1.241,0.483 -1.401,0.693 -0.046,0.061 -0.403,0.238 -0.792,0.393 -0.389,0.156 -0.708,0.341 -0.708,0.412 0,0.07 -0.226,0.222 -0.504,0.337 -0.277,0.115 -0.558,0.293 -0.625,0.395 -0.066,0.103 -0.383,0.332 -0.704,0.511 -0.321,0.178 -0.669,0.403 -0.774,0.5 -0.105,0.096 -0.437,0.363 -0.737,0.592 -0.3,0.23 -0.724,0.586 -0.941,0.792 -0.218,0.206 -0.449,0.376 -0.514,0.376 -0.142,0.002 -4.701,4.556 -4.701,4.697 0,0.085 -0.61,0.773 -1.835,2.07 -0.182,0.193 -0.331,0.425 -0.331,0.515 0,0.091 -0.151,0.302 -0.335,0.468 -0.184,0.166 -0.302,0.334 -0.264,0.373 0.039,0.039 -0.076,0.233 -0.256,0.432 -0.57,0.629 -0.732,0.849 -0.97,1.319 -0.127,0.252 -0.294,0.458 -0.37,0.458 -0.076,0 -0.139,0.083 -0.139,0.184 0,0.102 -0.225,0.518 -0.5,0.926 -0.275,0.407 -0.5,0.802 -0.5,0.876 0,0.075 -0.155,0.334 -0.345,0.575 -0.19,0.242 -0.284,0.44 -0.208,0.442 0.075,0.001 0.062,0.058 -0.03,0.125 -0.202,0.148 -0.822,1.405 -0.78,1.581 0.016,0.068 -0.029,0.125 -0.1,0.125 -0.072,0 -0.23,0.337 -0.352,0.75 -0.122,0.412 -0.293,0.75 -0.38,0.75 -0.087,0 -0.111,0.075 -0.055,0.166 0.057,0.092 0.033,0.167 -0.052,0.167 -0.086,0 -0.201,0.225 -0.256,0.5 -0.055,0.275 -0.242,0.819 -0.416,1.208 -0.174,0.39 -0.409,1.102 -0.521,1.584 -0.113,0.481 -0.28,0.875 -0.372,0.875 -0.093,0 -0.126,0.11 -0.074,0.244 0.051,0.135 0.033,0.283 -0.041,0.328 -0.075,0.046 -0.232,0.649 -0.35,1.339 -0.118,0.69 -0.267,1.255 -0.331,1.255 -0.122,0 -0.671,3.582 -0.67,4.375 0,0.252 -0.075,0.459 -0.166,0.459 -0.302,0 -0.374,13.26 -0.073,13.467 0.093,0.064 0.3,1.163 0.46,2.443 0.161,1.281 0.353,2.368 0.428,2.417 0.075,0.049 0.232,0.614 0.349,1.256 0.118,0.642 0.306,1.354 0.419,1.583 0.113,0.23 0.301,0.829 0.419,1.334 0.117,0.504 0.352,1.178 0.522,1.497 0.17,0.32 0.309,0.697 0.309,0.838 0,0.141 0.11,0.414 0.244,0.606 0.134,0.191 0.197,0.396 0.139,0.453 -0.058,0.058 -0.034,0.106 0.053,0.106 0.086,0 0.257,0.337 0.379,0.75 0.122,0.412 0.293,0.75 0.38,0.75 0.087,0 0.111,0.075 0.055,0.166 C 19.86,82.925 19.881,83 19.963,83 c 0.083,0 0.249,0.3 0.37,0.667 0.121,0.366 0.288,0.666 0.37,0.666 0.083,0 0.108,0.069 0.056,0.153 -0.052,0.084 -0.038,0.177 0.032,0.208 0.069,0.031 0.256,0.318 0.416,0.639 0.323,0.649 0.337,0.671 1.622,2.667 1.022,1.586 2.276,3.267 3.462,4.639 1.251,1.449 4.242,4.528 4.397,4.528 0.078,0 0.423,0.3 0.768,0.666 0.345,0.367 0.717,0.667 0.826,0.667 0.11,0 0.311,0.159 0.447,0.354 0.136,0.194 0.39,0.438 0.564,0.542 0.173,0.103 0.685,0.431 1.136,0.729 0.452,0.298 0.933,0.615 1.071,0.706 0.137,0.09 0.587,0.389 1,0.664 0.412,0.274 0.838,0.5 0.946,0.502 0.108,0.002 0.296,0.102 0.417,0.223 0.121,0.122 0.577,0.357 1.012,0.523 0.435,0.166 0.792,0.359 0.792,0.428 0,0.07 0.45,0.261 1,0.426 0.55,0.165 1,0.354 1,0.42 0,0.067 0.562,0.254 1.25,0.416 0.687,0.162 1.25,0.343 1.25,0.403 0,0.059 0.768,0.247 1.708,0.417 0.94,0.17 1.746,0.36 1.792,0.421 0.263,0.354 4.987,0.493 16.818,0.493 H 77.167 V 99.5 92.833 H 65.384 C 54.416,92.833 49.92,92.694 49.667,92.345 49.621,92.282 49.063,92.137 48.428,92.022 47.792,91.908 46.967,91.676 46.594,91.507 46.222,91.339 45.598,91.106 45.208,90.991 44.819,90.875 44.5,90.732 44.5,90.673 c 0,-0.059 -0.375,-0.242 -0.833,-0.407 -0.459,-0.165 -0.834,-0.356 -0.834,-0.424 0,-0.069 -0.337,-0.264 -0.75,-0.434 -0.412,-0.17 -0.75,-0.367 -0.75,-0.438 0,-0.07 -0.24,-0.252 -0.533,-0.404 -0.294,-0.152 -0.637,-0.379 -0.763,-0.505 -0.126,-0.127 -0.393,-0.316 -0.592,-0.422 -0.199,-0.105 -0.46,-0.33 -0.579,-0.499 -0.12,-0.169 -0.289,-0.307 -0.376,-0.307 -0.196,0 -3.657,-3.47 -3.657,-3.666 0,-0.079 -0.168,-0.283 -0.375,-0.453 -0.415,-0.344 -0.75,-0.811 -0.899,-1.256 -0.054,-0.16 -0.161,-0.291 -0.237,-0.291 -0.077,0 -0.264,-0.263 -0.417,-0.584 C 32.753,80.262 32.574,80 32.508,80 c -0.067,0 -0.264,-0.299 -0.44,-0.665 -0.175,-0.365 -0.364,-0.665 -0.42,-0.666 -0.057,-10e-4 -0.232,-0.34 -0.389,-0.752 -0.158,-0.413 -0.347,-0.75 -0.42,-0.75 -0.074,0 -0.26,-0.386 -0.414,-0.856 -0.154,-0.471 -0.381,-0.957 -0.504,-1.08 -0.123,-0.124 -0.275,-0.527 -0.338,-0.898 -0.062,-0.37 -0.21,-0.769 -0.327,-0.887 -0.118,-0.117 -0.349,-0.847 -0.514,-1.621 -0.165,-0.775 -0.357,-1.447 -0.425,-1.494 -0.156,-0.106 -0.65,-3.384 -0.65,-4.311 0,-0.378 -0.075,-0.687 -0.167,-0.687 -0.106,0 -0.167,-1.25 -0.167,-3.416 0,-2.167 0.061,-3.417 0.167,-3.417 0.092,0 0.167,-0.268 0.167,-0.595 0,-0.858 0.519,-4.306 0.664,-4.405 0.067,-0.046 0.254,-0.683 0.415,-1.417 0.161,-0.733 0.349,-1.371 0.418,-1.416 0.069,-0.046 0.25,-0.515 0.402,-1.042 0.152,-0.527 0.333,-0.958 0.402,-0.958 0.069,0 0.227,-0.342 0.35,-0.76 0.123,-0.417 0.312,-0.848 0.418,-0.958 0.107,-0.109 0.297,-0.449 0.422,-0.755 0.125,-0.306 0.31,-0.644 0.41,-0.752 0.1,-0.109 0.331,-0.496 0.514,-0.861 0.182,-0.365 0.426,-0.724 0.541,-0.798 0.116,-0.073 0.21,-0.228 0.21,-0.343 0,-0.116 0.138,-0.358 0.305,-0.538 0.168,-0.18 0.448,-0.55 0.622,-0.823 0.175,-0.273 0.45,-0.594 0.612,-0.713 0.162,-0.12 0.295,-0.291 0.295,-0.379 0,-0.344 4.309,-4.654 4.653,-4.654 0.089,0 0.259,-0.131 0.379,-0.292 0.12,-0.161 0.499,-0.441 0.843,-0.621 0.343,-0.181 0.625,-0.386 0.625,-0.456 0,-0.069 0.278,-0.243 0.619,-0.385 0.34,-0.142 0.659,-0.315 0.708,-0.385 0.132,-0.186 2.517,-1.323 3.048,-1.452 C 45.794,32.681 46,32.576 46,32.509 c 0,-0.125 2.09,-0.676 2.566,-0.676 0.147,0 0.267,-0.063 0.267,-0.14 0,-0.405 3.612,-0.526 15.741,-0.526 h 12.593 v -6.75 -6.75 l -13.042,0.025 c -7.173,0.013 -13.267,0.051 -13.542,0.084 m 0.665,18.061 C 51.192,35.927 50.961,36 50.733,36 c -0.608,0 -2.968,0.509 -3.066,0.661 -0.046,0.072 -0.346,0.186 -0.667,0.254 -0.321,0.069 -0.733,0.206 -0.917,0.307 -0.183,0.1 -0.389,0.166 -0.458,0.147 -0.069,-0.02 -0.125,0.039 -0.125,0.131 0,0.092 -0.082,0.167 -0.183,0.167 -0.291,0 -1.37,0.544 -1.723,0.869 -0.178,0.164 -0.424,0.297 -0.547,0.297 -0.123,0 -0.267,0.113 -0.32,0.25 -0.053,0.138 -0.169,0.25 -0.258,0.25 -0.211,0 -2.574,1.916 -3.219,2.61 -0.275,0.296 -0.913,1.036 -1.417,1.645 -0.504,0.608 -1.123,1.342 -1.375,1.63 C 36.206,45.505 36,45.829 36,45.936 c 0,0.107 -0.113,0.238 -0.25,0.291 -0.138,0.053 -0.25,0.178 -0.25,0.279 0,0.101 -0.207,0.497 -0.459,0.881 -0.896,1.358 -2.041,3.968 -2.373,5.405 -0.111,0.482 -0.261,0.913 -0.334,0.958 -0.073,0.045 -0.221,0.738 -0.328,1.541 -0.107,0.802 -0.24,1.571 -0.294,1.709 -0.195,0.495 -0.266,1.804 -0.264,4.917 0.003,4.14 0.021,4.592 0.191,4.813 0.078,0.103 0.237,0.843 0.352,1.645 0.116,0.802 0.275,1.458 0.354,1.458 0.08,0 0.098,0.12 0.042,0.267 -0.056,0.147 -0.031,0.316 0.056,0.375 0.087,0.06 0.241,0.446 0.342,0.858 0.331,1.356 1.901,4.835 2.243,4.973 0.076,0.03 0.139,0.125 0.139,0.21 0,0.22 1.206,2.04 1.458,2.201 0.114,0.073 0.208,0.225 0.208,0.337 0,0.25 3.466,3.946 3.7,3.946 0.093,0 0.317,0.187 0.497,0.417 0.18,0.229 0.417,0.416 0.525,0.416 0.109,0 0.292,0.15 0.406,0.334 0.115,0.183 0.284,0.333 0.375,0.333 0.092,0 0.477,0.225 0.857,0.5 0.38,0.275 0.784,0.5 0.898,0.5 0.113,0 0.244,0.098 0.29,0.217 0.046,0.12 0.41,0.323 0.81,0.452 0.399,0.128 0.763,0.279 0.809,0.334 0.181,0.219 2.82,1.051 4,1.262 0.972,0.174 4.127,0.225 14.208,0.229 L 77.167,88 V 61.831 35.663 l -12.91,0.006 c -8.213,0.003 -12.945,0.065 -13.009,0.168"
       stroke="none"
       fill="#1c6ca4"
       fill-rule="evenodd"
       inkscape:label="path2"
       style="display:inline"
       sodipodi:nodetypes="cccscscsccscccccscsccccccsscsscscsccscsccsccccccccsccccccsccccccscccscccsscccccccscscccccscccscscccscsssccscccccsssccccscscsccccscsccccscscsccscsccsscccscssscccsccsscsccsccscsssscccsscccsccssssccssscscsccccscscccccccssccccccccccccccccssscscssccscccccccscsscccsscsccccscscssccsccsscsccsccccsccscscscssccccscscccccscsssscsscscccsccccscscsccccssccscscccsccccccssssscccssccscccscccssscscccssssccccccsccccsscscscccscsccscccccsscccscsscscssscccccccccc" />
  </g>
</svg>
